<?xml version="1.0" standalone="no"?>
<!DOCTYPE svg PUBLIC "-//W3C//DTD SVG 20010904//EN"
 "http://www.w3.org/TR/2001/REC-SVG-20010904/DTD/svg10.dtd">
<svg version="1.0" xmlns="http://www.w3.org/2000/svg"
 width="256.000000pt" height="256.000000pt" viewBox="0 0 256.000000 256.000000"
 preserveAspectRatio="xMidYMid meet">
<metadata>
Created by potrace 1.14, written by Peter Selinger 2001-2017
</metadata>
<g transform="translate(0.000000,256.000000) scale(0.100000,-0.100000)"
fill="#000000" stroke="none">
<path d="M1098 2555 c-2 -2 -39 -5 -83 -9 -85 -6 -157 -14 -191 -21 -12 -3
-39 -7 -60 -10 -148 -22 -382 -105 -464 -164 -40 -29 -92 -86 -101 -110 -12
-30 -7 -263 5 -286 16 -31 73 -95 85 -95 5 0 16 -6 23 -12 49 -47 301 -136
437 -154 42 -6 76 -11 111 -18 170 -32 582 -38 780 -11 14 2 45 6 70 9 68 8
275 51 275 56 0 1 7 3 15 5 30 6 146 48 175 63 17 9 33 15 37 14 3 -1 12 5 18
13 7 8 16 15 21 15 22 0 107 84 121 119 16 42 8 270 -10 306 -35 66 -182 153
-342 200 -47 14 -94 27 -105 29 -116 22 -199 37 -240 41 -27 4 -61 9 -75 11
-26 6 -497 14 -502 9z"/>
<path d="M191 1573 c0 -75 5 -141 11 -158 13 -33 79 -105 97 -105 6 0 11 -4
11 -8 0 -7 82 -53 100 -57 3 0 14 -6 25 -12 38 -21 234 -76 315 -88 14 -2 36
-7 50 -10 14 -3 45 -7 70 -10 25 -2 55 -7 66 -9 102 -21 539 -22 689 -1 17 2
50 6 75 9 25 3 54 8 65 10 11 2 40 7 65 12 25 4 47 8 50 9 3 1 33 8 68 15 34
8 62 17 62 20 0 3 9 6 20 7 42 3 210 77 218 96 2 4 9 7 15 7 18 0 61 40 91 84
25 37 26 44 26 178 l0 139 -47 -27 c-27 -14 -52 -30 -58 -34 -16 -13 -208 -82
-240 -87 -16 -2 -48 -10 -70 -18 -22 -7 -65 -16 -95 -20 -30 -4 -58 -9 -62
-11 -4 -3 -35 -7 -70 -10 -35 -3 -70 -8 -78 -10 -69 -23 -614 -23 -750 0 -14
2 -47 7 -75 10 -27 3 -60 8 -71 10 -12 2 -39 7 -60 10 -147 24 -366 99 -462
159 -23 15 -43 27 -46 27 -2 0 -4 -57 -5 -127z"/>
<path d="M197 1143 c-3 -4 -5 -61 -6 -125 -1 -140 12 -182 73 -234 62 -54 238
-133 351 -159 162 -36 255 -52 375 -62 115 -10 493 -13 504 -4 6 5 20 5 30 2
11 -4 40 -4 65 0 25 4 69 10 96 13 79 10 157 23 185 31 8 2 26 6 40 9 14 3 40
9 58 15 18 5 33 9 35 9 4 -2 82 24 117 40 67 29 125 56 135 64 44 34 105 88
99 88 -4 0 0 8 8 18 12 13 16 48 17 160 1 78 -1 142 -4 142 -4 0 -19 -8 -33
-19 -37 -25 -152 -79 -209 -97 -104 -33 -255 -69 -326 -79 -156 -22 -170 -24
-257 -31 -142 -13 -522 -7 -630 10 -14 2 -52 7 -85 11 -33 3 -76 11 -95 16
-20 4 -51 11 -70 13 -61 8 -265 67 -295 85 -5 3 -12 6 -15 7 -12 2 -117 56
-137 70 -11 8 -23 12 -26 7z"/>
<path d="M192 468 c0 -147 7 -170 63 -224 18 -18 61 -48 96 -67 65 -36 246
-101 310 -111 20 -3 42 -8 50 -10 17 -7 61 -15 114 -22 22 -2 50 -7 62 -9 89
-19 552 -27 688 -12 39 4 89 10 111 12 23 2 55 7 70 10 16 3 45 8 64 11 29 5
85 18 170 39 8 2 15 4 15 5 0 1 8 3 18 5 10 2 26 7 35 11 9 4 24 8 32 10 36 7
183 88 220 122 63 56 68 70 69 224 2 129 1 137 -16 131 -10 -3 -25 -12 -33
-18 -56 -46 -334 -140 -475 -160 -22 -4 -47 -8 -55 -10 -8 -3 -42 -7 -74 -11
-33 -3 -68 -7 -78 -9 -116 -23 -565 -22 -728 0 -19 3 -51 7 -70 10 -221 26
-445 92 -587 171 -34 19 -63 34 -66 34 -3 0 -5 -60 -5 -132z"/>
</g>
</svg>
